# xmcd
#
# Track frame offsets: 
#        150
#        28267
#        56140
#        94772
#        122147
#        143767
#        179025
#        206539
#        235214
#
# Disc length: 3283 seconds
#
# Revision: 1
# Processed by: cddbd v1.5.2PL0 Copyright (c) Steve Scherf et al.
# Submitted via: ExactAudioCopy v0.95b4
#
DISCID=850cd109
DTITLE=Robert Balzar Trio - Overnight
DYEAR=2005
DGENRE=Jazz
TTITLE0=On Green Dolphin Street
TTITLE1=Lady Behind The Window
TTITLE2=La Tendresse
TTITLE3=Always
TTITLE4=Moment's Notice
TTITLE5=Night
TTITLE6=East Of The Sun
TTITLE7=Ben-In-Jam
TTITLE8=For Your Sound No.2
EXTD=
EXTT0=
EXTT1=
EXTT2=
EXTT3=
EXTT4=
EXTT5=
EXTT6=
EXTT7=
EXTT8=
PLAYORDER=
